<svg width="100" height="100" viewBox="0 0 100 100" fill="none" xmlns="http://www.w3.org/2000/svg">
    <path d="M50 5C65 5 95 20 95 50C95 80 65 95 50 95C35 95 5 80 5 50C5 20 35 5 50 5Z" fill="#2C5530" />
    <path d="M30 70C30 57.85 39.85 48 52 48C64.15 48 74 57.85 74 70" stroke="#FFD700" strokeWidth="4"
        strokeLinecap="round" />
    <path
        d="M52 20C58.6274 20 64 25.3726 64 32C64 38.6274 58.6274 44 52 44C45.3726 44 40 38.6274 40 32C40 25.3726 45.3726 20 52 20Z"
        fill="#FFD700" />
    <path d="M52 26V38M46 32H58" stroke="#2C5530" strokeWidth="3" strokeLinecap="round" />
    <path d="M30 70L40 60M70 70L60 60" stroke="#FFD700" strokeWidth="4" strokeLinecap="round" />
    <path d="M20 40C20 40 30 25 45 25" stroke="#FFFFFF" strokeWidth="2" strokeLinecap="round" />
    <path d="M75 30C75 30 85 40 85 55" stroke="#90EE90" strokeWidth="2" strokeLinecap="round" />
</svg>